<?xml version="1.0" encoding="UTF-8"?>
<svg id="Layer_1" data-name="Layer 1" xmlns="http://www.w3.org/2000/svg" version="1.1" viewBox="0 0 122.9 119.8">
  <defs>
    <style>
      .cls-1 {
        fill: #fff;
        stroke-width: 0px;
      }
    </style>
  </defs>
  <path class="cls-1" d="M50,0h0c13.8,0,26.3,5.6,35.3,14.7,9,9,14.6,21.5,14.6,35.3h0c0,0,0,0,0,0,0,5.6-.9,10.9-2.6,15.9-.3.8-.6,1.6-.9,2.4h0c-1.4,3.7-3.3,7.1-5.5,10.3l29.1,26.1h0s.2.2.2.2h0c1.6,1.6,2.5,3.7,2.6,5.8.1,2.1-.5,4.2-2,6h0s-.2.2-.2.2h0s-.1.2-.1.2h0c-1.6,1.7-3.7,2.6-5.8,2.7-2.1.1-4.2-.5-6-2h0s-.2-.2-.2-.2h0s-29.7-26.8-29.7-26.8c-.9.6-1.8,1.2-2.7,1.8-1.2.8-2.5,1.5-3.8,2.1-6.7,3.3-14.3,5.2-22.3,5.2h0s0,0,0,0h0c-13.8,0-26.3-5.6-35.3-14.7C5.6,76.3,0,63.8,0,50h0s0,0,0,0c0-13.8,5.6-26.3,14.6-35.3C23.7,5.6,36.2,0,50,0h0s0,0,0,0h0ZM50,11.2h0s0,0,0,0h0c-10.7,0-20.4,4.3-27.4,11.4-7,7-11.4,16.7-11.4,27.4h0s0,0,0,0c0,10.7,4.3,20.4,11.4,27.4,7,7,16.7,11.4,27.4,11.4h0s0,0,0,0h0c10.7,0,20.4-4.3,27.4-11.4,7-7,11.4-16.7,11.4-27.4h0s0,0,0,0c0-10.7-4.3-20.4-11.4-27.4-7-7-16.7-11.4-27.4-11.4h0Z"/>
</svg>